<mxfile host="app.diagrams.net" modified="2023-05-11T04:02:31.071Z" agent="Mozilla/5.0 (Windows NT 10.0; Win64; x64) AppleWebKit/537.36 (KHTML, like Gecko) Chrome/112.0.0.0 Safari/537.36" etag="WTze2IeRV3Q1Jp4VYoYM" version="21.2.9" type="github">
  <diagram name="Page-1" id="2YBvvXClWsGukQMizWep">
    <mxGraphModel dx="1434" dy="808" grid="1" gridSize="10" guides="1" tooltips="1" connect="1" arrows="1" fold="1" page="1" pageScale="1" pageWidth="850" pageHeight="1100" math="0" shadow="0">
      <root>
        <mxCell id="0" />
        <mxCell id="1" parent="0" />
        <mxCell id="9zkJeLZKbzWqGKO_yXjk-1" value="联易融" style="shape=umlLifeline;perimeter=lifelinePerimeter;whiteSpace=wrap;html=1;container=1;dropTarget=0;collapsible=0;recursiveResize=0;outlineConnect=0;portConstraint=eastwest;newEdgeStyle={&quot;edgeStyle&quot;:&quot;elbowEdgeStyle&quot;,&quot;elbow&quot;:&quot;vertical&quot;,&quot;curved&quot;:0,&quot;rounded&quot;:0};rounded=1;" vertex="1" parent="1">
          <mxGeometry x="350" y="40" width="100" height="1000" as="geometry" />
        </mxCell>
        <mxCell id="9zkJeLZKbzWqGKO_yXjk-4" value="" style="html=1;points=[];perimeter=orthogonalPerimeter;outlineConnect=0;targetShapes=umlLifeline;portConstraint=eastwest;newEdgeStyle={&quot;edgeStyle&quot;:&quot;elbowEdgeStyle&quot;,&quot;elbow&quot;:&quot;vertical&quot;,&quot;curved&quot;:0,&quot;rounded&quot;:0};rounded=1;fillColor=#d5e8d4;strokeColor=#82b366;" vertex="1" parent="9zkJeLZKbzWqGKO_yXjk-1">
          <mxGeometry x="45" y="80" width="10" height="80" as="geometry" />
        </mxCell>
        <mxCell id="9zkJeLZKbzWqGKO_yXjk-23" value="" style="html=1;points=[];perimeter=orthogonalPerimeter;outlineConnect=0;targetShapes=umlLifeline;portConstraint=eastwest;newEdgeStyle={&quot;edgeStyle&quot;:&quot;elbowEdgeStyle&quot;,&quot;elbow&quot;:&quot;vertical&quot;,&quot;curved&quot;:0,&quot;rounded&quot;:0};rounded=1;fillColor=#1ba1e2;strokeColor=#006EAF;fontColor=#ffffff;" vertex="1" parent="9zkJeLZKbzWqGKO_yXjk-1">
          <mxGeometry x="45" y="349" width="10" height="40" as="geometry" />
        </mxCell>
        <mxCell id="9zkJeLZKbzWqGKO_yXjk-24" value="正常入账/入账办理" style="html=1;align=left;spacingLeft=2;endArrow=block;rounded=1;edgeStyle=orthogonalEdgeStyle;curved=0;rounded=0;fillColor=#1ba1e2;strokeColor=#006EAF;" edge="1" target="9zkJeLZKbzWqGKO_yXjk-23" parent="9zkJeLZKbzWqGKO_yXjk-1">
          <mxGeometry relative="1" as="geometry">
            <mxPoint x="50" y="329" as="sourcePoint" />
            <Array as="points">
              <mxPoint x="80" y="359" />
            </Array>
          </mxGeometry>
        </mxCell>
        <mxCell id="9zkJeLZKbzWqGKO_yXjk-2" value="渣打H2H" style="shape=umlLifeline;perimeter=lifelinePerimeter;whiteSpace=wrap;html=1;container=1;dropTarget=0;collapsible=0;recursiveResize=0;outlineConnect=0;portConstraint=eastwest;newEdgeStyle={&quot;edgeStyle&quot;:&quot;elbowEdgeStyle&quot;,&quot;elbow&quot;:&quot;vertical&quot;,&quot;curved&quot;:0,&quot;rounded&quot;:0};rounded=1;" vertex="1" parent="1">
          <mxGeometry x="510" y="40" width="100" height="1000" as="geometry" />
        </mxCell>
        <mxCell id="9zkJeLZKbzWqGKO_yXjk-5" value="" style="html=1;points=[];perimeter=orthogonalPerimeter;outlineConnect=0;targetShapes=umlLifeline;portConstraint=eastwest;newEdgeStyle={&quot;edgeStyle&quot;:&quot;elbowEdgeStyle&quot;,&quot;elbow&quot;:&quot;vertical&quot;,&quot;curved&quot;:0,&quot;rounded&quot;:0};rounded=1;fillColor=#d5e8d4;strokeColor=#82b366;" vertex="1" parent="9zkJeLZKbzWqGKO_yXjk-2">
          <mxGeometry x="45" y="80" width="10" height="80" as="geometry" />
        </mxCell>
        <mxCell id="9zkJeLZKbzWqGKO_yXjk-6" value="开户申请" style="html=1;verticalAlign=bottom;endArrow=block;edgeStyle=elbowEdgeStyle;elbow=vertical;curved=0;rounded=1;fillColor=#d5e8d4;strokeColor=#82b366;" edge="1" parent="1" target="9zkJeLZKbzWqGKO_yXjk-2">
          <mxGeometry x="0.0028" width="80" relative="1" as="geometry">
            <mxPoint x="400" y="140" as="sourcePoint" />
            <mxPoint x="480" y="140" as="targetPoint" />
            <mxPoint as="offset" />
          </mxGeometry>
        </mxCell>
        <mxCell id="9zkJeLZKbzWqGKO_yXjk-8" value="开户" style="shape=umlFrame;whiteSpace=wrap;html=1;pointerEvents=0;rounded=1;fillColor=#d5e8d4;strokeColor=#82b366;" vertex="1" parent="1">
          <mxGeometry x="320" y="90" width="320" height="130" as="geometry" />
        </mxCell>
        <mxCell id="9zkJeLZKbzWqGKO_yXjk-9" value="ack1" style="html=1;verticalAlign=bottom;endArrow=open;dashed=1;endSize=8;edgeStyle=elbowEdgeStyle;elbow=vertical;curved=0;rounded=1;fillColor=#d5e8d4;strokeColor=#82b366;" edge="1" parent="1" source="9zkJeLZKbzWqGKO_yXjk-5">
          <mxGeometry relative="1" as="geometry">
            <mxPoint x="480" y="160" as="sourcePoint" />
            <mxPoint x="400" y="160" as="targetPoint" />
          </mxGeometry>
        </mxCell>
        <mxCell id="9zkJeLZKbzWqGKO_yXjk-10" value="ack2" style="html=1;verticalAlign=bottom;endArrow=open;dashed=1;endSize=8;edgeStyle=elbowEdgeStyle;elbow=vertical;curved=0;rounded=1;fillColor=#d5e8d4;strokeColor=#82b366;" edge="1" parent="1">
          <mxGeometry x="-0.0009" relative="1" as="geometry">
            <mxPoint x="555" y="189.76" as="sourcePoint" />
            <mxPoint x="400" y="189.76" as="targetPoint" />
            <mxPoint as="offset" />
          </mxGeometry>
        </mxCell>
        <mxCell id="9zkJeLZKbzWqGKO_yXjk-11" value="" style="shape=umlLifeline;perimeter=lifelinePerimeter;whiteSpace=wrap;html=1;container=1;dropTarget=0;collapsible=0;recursiveResize=0;outlineConnect=0;portConstraint=eastwest;newEdgeStyle={&quot;edgeStyle&quot;:&quot;elbowEdgeStyle&quot;,&quot;elbow&quot;:&quot;vertical&quot;,&quot;curved&quot;:0,&quot;rounded&quot;:0};participant=umlActor;rounded=1;" vertex="1" parent="1">
          <mxGeometry x="230" y="40" width="20" height="1000" as="geometry" />
        </mxCell>
        <mxCell id="9zkJeLZKbzWqGKO_yXjk-12" value="" style="html=1;points=[];perimeter=orthogonalPerimeter;outlineConnect=0;targetShapes=umlLifeline;portConstraint=eastwest;newEdgeStyle={&quot;edgeStyle&quot;:&quot;elbowEdgeStyle&quot;,&quot;elbow&quot;:&quot;vertical&quot;,&quot;curved&quot;:0,&quot;rounded&quot;:0};rounded=1;fillColor=#d5e8d4;strokeColor=#82b366;" vertex="1" parent="9zkJeLZKbzWqGKO_yXjk-11">
          <mxGeometry x="5" y="80" width="10" height="80" as="geometry" />
        </mxCell>
        <mxCell id="9zkJeLZKbzWqGKO_yXjk-39" value="" style="html=1;points=[];perimeter=orthogonalPerimeter;outlineConnect=0;targetShapes=umlLifeline;portConstraint=eastwest;newEdgeStyle={&quot;edgeStyle&quot;:&quot;elbowEdgeStyle&quot;,&quot;elbow&quot;:&quot;vertical&quot;,&quot;curved&quot;:0,&quot;rounded&quot;:0};rounded=1;fillColor=#1ba1e2;fontColor=#ffffff;strokeColor=#006EAF;" vertex="1" parent="9zkJeLZKbzWqGKO_yXjk-11">
          <mxGeometry x="5" y="320" width="10" height="80" as="geometry" />
        </mxCell>
        <mxCell id="9zkJeLZKbzWqGKO_yXjk-44" value="" style="html=1;points=[];perimeter=orthogonalPerimeter;outlineConnect=0;targetShapes=umlLifeline;portConstraint=eastwest;newEdgeStyle={&quot;edgeStyle&quot;:&quot;elbowEdgeStyle&quot;,&quot;elbow&quot;:&quot;vertical&quot;,&quot;curved&quot;:0,&quot;rounded&quot;:0};rounded=1;fillColor=#f0a30a;fontColor=#000000;strokeColor=#BD7000;" vertex="1" parent="9zkJeLZKbzWqGKO_yXjk-11">
          <mxGeometry x="5" y="600" width="10" height="80" as="geometry" />
        </mxCell>
        <mxCell id="9zkJeLZKbzWqGKO_yXjk-13" value="" style="shape=umlLifeline;perimeter=lifelinePerimeter;whiteSpace=wrap;html=1;container=1;dropTarget=0;collapsible=0;recursiveResize=0;outlineConnect=0;portConstraint=eastwest;newEdgeStyle={&quot;edgeStyle&quot;:&quot;elbowEdgeStyle&quot;,&quot;elbow&quot;:&quot;vertical&quot;,&quot;curved&quot;:0,&quot;rounded&quot;:0};participant=umlActor;rounded=1;" vertex="1" parent="1">
          <mxGeometry x="110" y="40" width="20" height="1000" as="geometry" />
        </mxCell>
        <mxCell id="9zkJeLZKbzWqGKO_yXjk-14" value="" style="html=1;points=[];perimeter=orthogonalPerimeter;outlineConnect=0;targetShapes=umlLifeline;portConstraint=eastwest;newEdgeStyle={&quot;edgeStyle&quot;:&quot;elbowEdgeStyle&quot;,&quot;elbow&quot;:&quot;vertical&quot;,&quot;curved&quot;:0,&quot;rounded&quot;:0};rounded=1;fillColor=#d5e8d4;strokeColor=#82b366;" vertex="1" parent="9zkJeLZKbzWqGKO_yXjk-13">
          <mxGeometry x="5" y="80" width="10" height="80" as="geometry" />
        </mxCell>
        <mxCell id="9zkJeLZKbzWqGKO_yXjk-40" value="" style="html=1;points=[];perimeter=orthogonalPerimeter;outlineConnect=0;targetShapes=umlLifeline;portConstraint=eastwest;newEdgeStyle={&quot;edgeStyle&quot;:&quot;elbowEdgeStyle&quot;,&quot;elbow&quot;:&quot;vertical&quot;,&quot;curved&quot;:0,&quot;rounded&quot;:0};rounded=1;fillColor=#1ba1e2;fontColor=#ffffff;strokeColor=#006EAF;" vertex="1" parent="9zkJeLZKbzWqGKO_yXjk-13">
          <mxGeometry x="5" y="320" width="10" height="80" as="geometry" />
        </mxCell>
        <mxCell id="9zkJeLZKbzWqGKO_yXjk-45" value="" style="html=1;points=[];perimeter=orthogonalPerimeter;outlineConnect=0;targetShapes=umlLifeline;portConstraint=eastwest;newEdgeStyle={&quot;edgeStyle&quot;:&quot;elbowEdgeStyle&quot;,&quot;elbow&quot;:&quot;vertical&quot;,&quot;curved&quot;:0,&quot;rounded&quot;:0};rounded=1;fillColor=#f0a30a;fontColor=#000000;strokeColor=#BD7000;" vertex="1" parent="9zkJeLZKbzWqGKO_yXjk-13">
          <mxGeometry x="5" y="600" width="10" height="80" as="geometry" />
        </mxCell>
        <mxCell id="9zkJeLZKbzWqGKO_yXjk-15" value="客户申请" style="html=1;verticalAlign=bottom;endArrow=block;edgeStyle=elbowEdgeStyle;elbow=vertical;curved=0;rounded=1;fillColor=#d5e8d4;strokeColor=#82b366;" edge="1" parent="1" target="9zkJeLZKbzWqGKO_yXjk-11">
          <mxGeometry x="0.003" width="80" relative="1" as="geometry">
            <mxPoint x="120" y="130" as="sourcePoint" />
            <mxPoint x="200" y="130" as="targetPoint" />
            <mxPoint as="offset" />
          </mxGeometry>
        </mxCell>
        <mxCell id="9zkJeLZKbzWqGKO_yXjk-16" value="开户申请" style="html=1;verticalAlign=bottom;endArrow=block;edgeStyle=elbowEdgeStyle;elbow=vertical;curved=0;rounded=1;fillColor=#d5e8d4;strokeColor=#82b366;" edge="1" parent="1" target="9zkJeLZKbzWqGKO_yXjk-1">
          <mxGeometry x="0.003" width="80" relative="1" as="geometry">
            <mxPoint x="240" y="140" as="sourcePoint" />
            <mxPoint x="360" y="140" as="targetPoint" />
            <mxPoint as="offset" />
          </mxGeometry>
        </mxCell>
        <mxCell id="9zkJeLZKbzWqGKO_yXjk-17" value="收款" style="shape=umlFrame;whiteSpace=wrap;html=1;pointerEvents=0;rounded=1;fillColor=#1ba1e2;strokeColor=#006EAF;fontColor=#ffffff;" vertex="1" parent="1">
          <mxGeometry x="320" y="260" width="320" height="180" as="geometry" />
        </mxCell>
        <mxCell id="9zkJeLZKbzWqGKO_yXjk-18" value="" style="html=1;points=[];perimeter=orthogonalPerimeter;outlineConnect=0;targetShapes=umlLifeline;portConstraint=eastwest;newEdgeStyle={&quot;edgeStyle&quot;:&quot;elbowEdgeStyle&quot;,&quot;elbow&quot;:&quot;vertical&quot;,&quot;curved&quot;:0,&quot;rounded&quot;:0};rounded=1;fillColor=#1ba1e2;strokeColor=#006EAF;fontColor=#ffffff;" vertex="1" parent="1">
          <mxGeometry x="555" y="280" width="10" height="80" as="geometry" />
        </mxCell>
        <mxCell id="9zkJeLZKbzWqGKO_yXjk-19" value="" style="html=1;points=[];perimeter=orthogonalPerimeter;outlineConnect=0;targetShapes=umlLifeline;portConstraint=eastwest;newEdgeStyle={&quot;edgeStyle&quot;:&quot;elbowEdgeStyle&quot;,&quot;elbow&quot;:&quot;vertical&quot;,&quot;curved&quot;:0,&quot;rounded&quot;:0};rounded=1;fillColor=#1ba1e2;strokeColor=#006EAF;fontColor=#ffffff;" vertex="1" parent="1">
          <mxGeometry x="395" y="280" width="10" height="80" as="geometry" />
        </mxCell>
        <mxCell id="9zkJeLZKbzWqGKO_yXjk-20" value="MT942" style="html=1;verticalAlign=bottom;endArrow=open;dashed=1;endSize=8;edgeStyle=elbowEdgeStyle;elbow=vertical;curved=0;rounded=1;fillColor=#1ba1e2;strokeColor=#006EAF;" edge="1" parent="1">
          <mxGeometry relative="1" as="geometry">
            <mxPoint x="555" y="300" as="sourcePoint" />
            <mxPoint x="400" y="300" as="targetPoint" />
          </mxGeometry>
        </mxCell>
        <mxCell id="9zkJeLZKbzWqGKO_yXjk-31" value="付款" style="shape=umlFrame;whiteSpace=wrap;html=1;pointerEvents=0;rounded=1;fillColor=#f0a30a;strokeColor=#BD7000;fontColor=#000000;" vertex="1" parent="1">
          <mxGeometry x="320" y="470" width="320" height="250" as="geometry" />
        </mxCell>
        <mxCell id="9zkJeLZKbzWqGKO_yXjk-32" value="" style="html=1;points=[];perimeter=orthogonalPerimeter;outlineConnect=0;targetShapes=umlLifeline;portConstraint=eastwest;newEdgeStyle={&quot;edgeStyle&quot;:&quot;elbowEdgeStyle&quot;,&quot;elbow&quot;:&quot;vertical&quot;,&quot;curved&quot;:0,&quot;rounded&quot;:0};rounded=1;fillColor=#f0a30a;fontColor=#000000;strokeColor=#BD7000;" vertex="1" parent="1">
          <mxGeometry x="395" y="520" width="10" height="160" as="geometry" />
        </mxCell>
        <mxCell id="9zkJeLZKbzWqGKO_yXjk-33" value="" style="html=1;points=[];perimeter=orthogonalPerimeter;outlineConnect=0;targetShapes=umlLifeline;portConstraint=eastwest;newEdgeStyle={&quot;edgeStyle&quot;:&quot;elbowEdgeStyle&quot;,&quot;elbow&quot;:&quot;vertical&quot;,&quot;curved&quot;:0,&quot;rounded&quot;:0};rounded=1;fillColor=#f0a30a;fontColor=#000000;strokeColor=#BD7000;" vertex="1" parent="1">
          <mxGeometry x="555" y="520" width="10" height="160" as="geometry" />
        </mxCell>
        <mxCell id="9zkJeLZKbzWqGKO_yXjk-34" value="付款申请" style="html=1;verticalAlign=bottom;endArrow=block;edgeStyle=elbowEdgeStyle;elbow=vertical;curved=0;rounded=1;fillColor=#f0a30a;strokeColor=#BD7000;" edge="1" parent="1" target="9zkJeLZKbzWqGKO_yXjk-33">
          <mxGeometry x="-0.0042" width="80" relative="1" as="geometry">
            <mxPoint x="400" y="530" as="sourcePoint" />
            <mxPoint x="480" y="530" as="targetPoint" />
            <mxPoint as="offset" />
          </mxGeometry>
        </mxCell>
        <mxCell id="9zkJeLZKbzWqGKO_yXjk-35" value="ack1/rej1" style="html=1;verticalAlign=bottom;endArrow=open;dashed=1;endSize=8;edgeStyle=elbowEdgeStyle;elbow=vertical;curved=0;rounded=1;fillColor=#f0a30a;strokeColor=#BD7000;" edge="1" parent="1">
          <mxGeometry relative="1" as="geometry">
            <mxPoint x="555" y="559.5" as="sourcePoint" />
            <mxPoint x="400" y="559.5" as="targetPoint" />
          </mxGeometry>
        </mxCell>
        <mxCell id="9zkJeLZKbzWqGKO_yXjk-36" value="ack2/rej2" style="html=1;verticalAlign=bottom;endArrow=open;dashed=1;endSize=8;edgeStyle=elbowEdgeStyle;elbow=vertical;curved=0;rounded=1;fillColor=#f0a30a;strokeColor=#BD7000;" edge="1" parent="1">
          <mxGeometry relative="1" as="geometry">
            <mxPoint x="555" y="590.1" as="sourcePoint" />
            <mxPoint x="400" y="590.1" as="targetPoint" />
          </mxGeometry>
        </mxCell>
        <mxCell id="9zkJeLZKbzWqGKO_yXjk-37" value="ack3/rej3" style="html=1;verticalAlign=bottom;endArrow=open;dashed=1;endSize=8;edgeStyle=elbowEdgeStyle;elbow=vertical;curved=0;rounded=1;fillColor=#f0a30a;strokeColor=#BD7000;" edge="1" parent="1">
          <mxGeometry relative="1" as="geometry">
            <mxPoint x="555" y="630" as="sourcePoint" />
            <mxPoint x="400" y="630" as="targetPoint" />
          </mxGeometry>
        </mxCell>
        <mxCell id="9zkJeLZKbzWqGKO_yXjk-38" value="bansta" style="html=1;verticalAlign=bottom;endArrow=open;dashed=1;endSize=8;edgeStyle=elbowEdgeStyle;elbow=vertical;curved=0;rounded=1;fillColor=#f0a30a;strokeColor=#BD7000;" edge="1" parent="1">
          <mxGeometry relative="1" as="geometry">
            <mxPoint x="555" y="670" as="sourcePoint" />
            <mxPoint x="400" y="670" as="targetPoint" />
          </mxGeometry>
        </mxCell>
        <mxCell id="9zkJeLZKbzWqGKO_yXjk-42" value="可视化更新显示" style="html=1;verticalAlign=bottom;endArrow=open;dashed=1;endSize=8;edgeStyle=elbowEdgeStyle;elbow=vertical;curved=0;rounded=0;" edge="1" parent="1" target="9zkJeLZKbzWqGKO_yXjk-11">
          <mxGeometry relative="1" as="geometry">
            <mxPoint x="400" y="420" as="sourcePoint" />
            <mxPoint x="320" y="420" as="targetPoint" />
          </mxGeometry>
        </mxCell>
        <mxCell id="9zkJeLZKbzWqGKO_yXjk-43" value="可视化更新显示" style="html=1;verticalAlign=bottom;endArrow=open;dashed=1;endSize=8;edgeStyle=elbowEdgeStyle;elbow=vertical;curved=0;rounded=0;" edge="1" parent="1">
          <mxGeometry relative="1" as="geometry">
            <mxPoint x="240" y="430" as="sourcePoint" />
            <mxPoint x="120" y="430" as="targetPoint" />
          </mxGeometry>
        </mxCell>
        <mxCell id="9zkJeLZKbzWqGKO_yXjk-46" value="可视化更新显示" style="html=1;verticalAlign=bottom;endArrow=open;dashed=1;endSize=8;edgeStyle=elbowEdgeStyle;elbow=vertical;curved=0;rounded=0;fillColor=#f0a30a;strokeColor=#BD7000;" edge="1" parent="1" source="9zkJeLZKbzWqGKO_yXjk-1">
          <mxGeometry x="0.0025" relative="1" as="geometry">
            <mxPoint x="320" y="690" as="sourcePoint" />
            <mxPoint x="240" y="690" as="targetPoint" />
            <mxPoint as="offset" />
          </mxGeometry>
        </mxCell>
        <mxCell id="9zkJeLZKbzWqGKO_yXjk-47" value="可视化更新显示" style="html=1;verticalAlign=bottom;endArrow=open;dashed=1;endSize=8;edgeStyle=elbowEdgeStyle;elbow=vertical;curved=0;rounded=0;fillColor=#f0a30a;strokeColor=#BD7000;" edge="1" parent="1" source="9zkJeLZKbzWqGKO_yXjk-11">
          <mxGeometry x="0.0033" relative="1" as="geometry">
            <mxPoint x="200" y="710" as="sourcePoint" />
            <mxPoint x="120" y="710" as="targetPoint" />
            <mxPoint as="offset" />
          </mxGeometry>
        </mxCell>
        <mxCell id="9zkJeLZKbzWqGKO_yXjk-48" value="芷悦" style="text;strokeColor=none;fillColor=none;html=1;fontSize=24;fontStyle=1;verticalAlign=middle;align=center;" vertex="1" parent="1">
          <mxGeometry x="190" y="80" width="100" height="40" as="geometry" />
        </mxCell>
        <mxCell id="9zkJeLZKbzWqGKO_yXjk-49" value="客户" style="text;strokeColor=none;fillColor=none;html=1;fontSize=24;fontStyle=1;verticalAlign=middle;align=center;" vertex="1" parent="1">
          <mxGeometry x="70" y="80" width="100" height="40" as="geometry" />
        </mxCell>
      </root>
    </mxGraphModel>
  </diagram>
</mxfile>
